<svg xmlns="http://www.w3.org/2000/svg" viewBox="0 0 900 520" role="img" aria-labelledby="t d"><title id="t">Sicherer Arbeitsplatz</title><desc id="d">Abstrakte Illustration eines sicheren Produktionsarbeitsplatzes</desc><defs><linearGradient id="g" x1="0" y1="0" x2="1" y2="1"><stop stop-color="#dbeafe"/><stop offset="1" stop-color="#eef2ff"/></linearGradient></defs><rect width="900" height="520" rx="36" fill="url(#g)"/><rect x="90" y="310" width="720" height="110" rx="18" fill="#cbd5e1"/><rect x="140" y="190" width="240" height="120" rx="18" fill="#334155"/><rect x="170" y="220" width="180" height="60" rx="10" fill="#94a3b8"/><circle cx="590" cy="205" r="52" fill="#f59e0b"/><path d="M530 340c0-78 32-118 60-118s60 40 60 118" fill="#2563eb"/><path d="M555 185h70l-8-28h-54z" fill="#facc15"/><path d="M725 160l52 92H673z" fill="#fff" stroke="#ef4444" stroke-width="12"/><path d="M725 190v30" stroke="#ef4444" stroke-width="12" stroke-linecap="round"/><circle cx="725" cy="236" r="7" fill="#ef4444"/><rect x="110" y="90" width="270" height="48" rx="24" fill="#fff" opacity=".9"/><text x="245" y="122" text-anchor="middle" font-family="Arial" font-size="22" font-weight="700" fill="#1e3a8a">SICHER ARBEITEN</text></svg>